<svg xmlns="http://www.w3.org/2000/svg" viewBox="0 0 253.963 221.61">
  <path fill="#d35f5f" d="M70.221 25.188c-12.85 1.486-24.616 4.306-35.674 11.428C2.136 57.493-8.329 102.34 8.184 136.444c12.461 25.737 38.97 42.128 63.14 55.526 10.546 5.845 21.457 11.278 32.544 16.023 4.246 1.817 9.767 5.07 14.552 4.535 6.109-.682 11.652-3.555 17.198-6.006 8.795-3.885 17.473-8.008 25.93-12.581 21.823-11.803 44.599-25.074 59.669-45.326 23.401-31.447 19.646-78.85-9.928-105.258-18.957-16.928-45.101-21.812-69.32-15.423-5.635 1.487-11.17 3.635-16.405 6.185-1.953.951-5.156 3.785-7.296 3.825-1.422.026-3.127-1.523-4.346-2.146-3.297-1.688-6.608-3.288-10.054-4.658-10.204-4.057-22.579-7.231-33.647-5.952m62.222 44.581c5.81 6.656 11.124 14.2 16.2 21.432a268.211 268.211 0 0 0 4.214 5.82c.46.62 1.152 1.777 1.99 1.91.699.111 1.22-.912 1.537-1.381a221.612 221.612 0 0 1 3.335-4.762c3.008-4.204 6.194-8.274 9.257-12.435 1.613-2.19 3.1-5.24 5.205-6.985 1.341-1.11 5.008-.424 6.681-.424h17.727v79.904h-24.87v-46.566l-5.591 7.144-12.93 17.197h-.265l-11.265-15.08-5.14-6.35c-.685 2.486-4.355 6.036-4.14 8.466.178 1.991 2.63 4.701 3.702 6.35 3.529 5.421 8.169 11.11 6.93 17.992-1.501 8.34-11.453 14.03-19.191 9.984-1.832-.958-3.525-2.432-4.888-3.978-.872-.989-1.69-2.406-3.05-2.747-1.839-.462-4.193-.084-6.085-.084h-28.84c-1.118 0-4.547.574-5.132-.614-.437-.888-.16-2.389-.16-3.355V106.81c0-3.002-.987-8.18.478-10.848 2.312-4.211 5.977-7.884 8.646-11.906 2.254-3.395 3.285-6.966 6.752-9.446 6.724-4.81 15.174-1.084 19.033 5.212 1.79 2.921 3.69 6.119 5.044 9.26h.264l7.31-10.318 7.242-8.996m-58.737 3.175v72.232c-2.622 0-6.235-.646-8.731.185-2.35.783-4.269 2.906-6.35 4.19-5.263 3.248-11.922 5.107-17.992 3.006-6.792-2.35-11.286-9.795-9.25-16.906 1.16-4.05 3.86-7.057 7.662-8.787 3.431-1.56 7.099-1.655 8.91-5.5 1.99-4.227.88-10.513.88-15.082V72.944h24.87m27.517 38.63-4.497 8.466h9.79l-4.763-8.467h-.53m148.96 130.705v4.233h4.234v-4.233z"/>
</svg>